<?xml version="1.0" standalone="no"?>
<!DOCTYPE svg PUBLIC "-//W3C//DTD SVG 20010904//EN"
 "http://www.w3.org/TR/2001/REC-SVG-20010904/DTD/svg10.dtd">
<svg version="1.0" xmlns="http://www.w3.org/2000/svg"
 width="225.000000pt" height="225.000000pt" viewBox="0 0 225.000000 225.000000"
 preserveAspectRatio="xMidYMid meet">
<metadata>
Created by potrace 1.16, written by Peter Selinger 2001-2019
</metadata>
<g transform="translate(0.000000,225.000000) scale(0.100000,-0.100000)"
fill="#000000" stroke="none">
<path d="M870 2063 c0 -4 9 -60 20 -123 27 -156 27 -155 -17 -174 -21 -8 -58
-35 -83 -58 -25 -24 -37 -36 -25 -28 11 8 34 27 52 44 19 17 38 26 47 23 8 -3
17 -3 20 2 3 4 19 6 35 5 30 -2 45 20 20 28 -11 4 -49 197 -49 250 0 15 -4 30
-10 33 -5 3 -10 3 -10 -2z"/>
<path d="M750 1953 c-1 -10 -9 -83 -19 -161 -15 -116 -23 -148 -40 -166 -12
-12 -21 -28 -21 -34 0 -7 -4 -12 -9 -12 -14 0 -29 -54 -24 -83 7 -35 31 -55
73 -59 21 -2 34 -8 33 -15 -2 -7 3 -10 11 -7 10 4 63 -19 94 -42 2 -1 -15 -19
-38 -40 -37 -34 -40 -39 -23 -46 31 -14 -47 3 -101 22 l-51 17 -47 -45 -48
-46 0 -105 c0 -85 4 -116 22 -162 19 -50 28 -60 62 -73 37 -15 39 -17 23 -34
-14 -16 -17 -43 -17 -172 0 -152 0 -153 30 -202 21 -34 30 -61 30 -92 0 -26 5
-46 13 -50 9 -3 8 -8 -4 -18 -78 -64 -92 -81 -82 -96 9 -15 71 -36 261 -90
l70 -20 36 33 c20 18 36 41 36 51 0 11 -3 15 -8 8 -4 -6 -15 -13 -24 -17 -10
-3 -18 -14 -18 -22 0 -9 -4 -13 -10 -10 -5 3 -10 1 -10 -5 0 -6 -5 -8 -11 -5
-7 5 -4 14 8 28 l18 22 -23 -19 -23 -20 -67 69 c-37 38 -58 61 -46 52 11 -9
25 -14 30 -10 5 5 6 4 1 -1 -8 -11 50 -76 67 -76 6 0 24 13 39 29 l28 28 -62
60 c-56 55 -60 62 -48 81 10 16 11 41 2 119 l-11 98 27 22 c15 11 38 44 51 73
20 42 28 50 45 46 11 -3 26 -6 33 -6 8 0 12 -18 12 -54 0 -34 5 -56 13 -59 7
-3 -10 -25 -43 -55 -50 -46 -54 -52 -39 -67 8 -8 86 -36 173 -62 l158 -45 35
35 c28 28 34 40 29 60 -3 14 -12 27 -20 30 -9 4 -13 1 -10 -7 6 -17 -32 -50
-50 -43 -10 4 -13 1 -9 -9 3 -7 0 -14 -5 -14 -25 0 -20 20 13 49 19 17 35 34
35 39 0 5 -27 34 -60 65 -34 31 -56 58 -50 62 5 3 10 30 10 60 0 41 4 57 19
67 16 11 16 15 5 26 -9 8 -14 9 -15 2 -1 -5 -2 -13 -3 -17 -2 -13 -59 -73 -69
-73 -5 0 -7 7 -3 15 3 8 2 15 -3 15 -5 0 -11 9 -14 20 -3 11 -1 20 4 20 5 0 9
9 9 21 0 11 -4 17 -10 14 -15 -9 -12 48 3 64 10 11 10 13 0 7 -8 -4 -13 -1
-13 8 0 9 5 16 10 16 6 0 10 7 10 15 0 8 -4 15 -10 15 -5 0 -10 21 -10 46 0
25 4 43 9 40 4 -3 7 5 6 17 -4 33 -4 33 -16 17 -8 -11 -9 -8 -4 13 4 21 3 27
-6 21 -8 -4 -9 -3 -5 5 4 6 12 9 17 6 5 -4 9 1 9 10 0 10 -5 13 -12 9 -8 -4
-10 -3 -5 2 5 5 14 9 19 9 6 0 13 7 16 15 3 8 2 12 -2 8 -4 -3 -40 3 -79 14
-49 14 -72 17 -75 9 -2 -6 -8 -11 -14 -11 -7 0 -7 4 0 13 9 10 -8 18 -76 37
-47 13 -82 25 -77 27 6 2 70 -14 143 -36 l132 -39 26 20 c21 17 30 19 49 10
32 -15 46 4 50 65 2 26 8 71 15 100 10 46 19 59 82 115 39 35 74 63 78 63 4 0
19 15 34 33 15 17 33 32 39 32 7 0 19 10 26 23 l14 22 14 -30 13 -30 -6 35
c-3 19 -8 37 -10 39 -3 4 -27 -15 -179 -147 -67 -59 -112 -91 -122 -88 -8 3
-52 17 -97 30 -45 13 -102 34 -127 46 l-44 23 55 48 c30 27 64 49 75 49 15 0
17 2 6 9 -11 7 -10 11 5 20 11 6 15 11 9 11 -10 0 -33 -18 -108 -85 -21 -19
-42 -37 -48 -40 -5 -4 -57 3 -114 16 l-105 22 5 46 c15 128 36 283 41 296 4 8
1 15 -5 15 -6 0 -11 -8 -11 -17z m-119 -696 c-10 -9 -11 -8 -5 6 3 10 9 15 12
12 3 -3 0 -11 -7 -18z m209 -7 c8 -5 11 -10 5 -10 -5 0 -17 5 -25 10 -8 5 -10
10 -5 10 6 0 17 -5 25 -10z m-34 -42 c-9 -5 -21 -6 -28 -2 -8 5 -5 10 8 14 25
10 41 0 20 -12z m79 3 c3 -5 2 -12 -3 -15 -5 -3 -9 1 -9 9 0 17 3 19 12 6z
m-130 -21 c13 -6 15 -9 5 -9 -8 0 -22 4 -30 9 -18 12 -2 12 25 0z m79 -1 c25
-12 43 -39 26 -39 -6 0 -10 5 -10 10 0 6 -6 10 -14 10 -7 0 -19 7 -26 15 -15
18 -9 19 24 4z m123 -5 c-3 -3 -12 -4 -19 -1 -8 3 -5 6 6 6 11 1 17 -2 13 -5z
m126 -19 c4 -8 2 -17 -3 -20 -6 -4 -10 3 -10 14 0 25 6 27 13 6z m-23 -16 c0
-5 -4 -9 -8 -9 -5 0 -9 7 -9 15 0 8 4 12 9 9 4 -3 8 -9 8 -15z m-60 -13 c0 -2
-11 -6 -25 -8 -13 -3 -22 -1 -19 3 5 9 44 13 44 5z m37 -12 c-3 -3 -12 -4 -19
-1 -8 3 -5 6 6 6 11 1 17 -2 13 -5z m35 -16 c-5 -21 -17 -23 -28 -6 -5 7 -3 8
6 3 9 -6 12 -4 8 7 -4 8 -1 15 7 15 7 0 10 -8 7 -19z m-248 -84 c9 -4 16 -18
16 -34 0 -17 7 -30 18 -35 15 -6 14 -9 -10 -30 -24 -21 -31 -22 -68 -13 -30 8
-38 14 -30 23 5 6 6 16 2 20 -4 5 -2 5 5 1 6 -3 14 -2 18 4 3 5 16 11 28 11
17 1 18 2 5 6 -11 3 -18 14 -18 29 0 25 7 28 34 18z m167 -57 c-13 -13 -26 -3
-16 12 3 6 11 8 17 5 6 -4 6 -10 -1 -17z m-88 -24 c4 -3 -3 -18 -15 -32 l-23
-26 23 20 c25 21 26 21 58 -38 25 -46 25 -66 -1 -91 -28 -28 -43 -22 -18 8 17
20 17 20 0 7 -21 -16 -19 -18 -61 52 l-33 55 26 26 c27 27 33 30 44 19z m112
-153 c3 -5 -1 -10 -9 -10 -9 0 -16 5 -16 10 0 6 4 10 9 10 6 0 13 -4 16 -10z
m318 -292 c-4 -7 -8 -17 -8 -23 0 -5 -7 -10 -15 -10 -23 -1 -41 -15 -34 -27 5
-7 2 -8 -5 -3 -9 5 -4 17 20 41 32 33 58 46 42 22z"/>
<path d="M1033 1763 c20 -2 54 -2 75 0 20 2 3 4 -38 4 -41 0 -58 -2 -37 -4z"/>
<path d="M1127 1739 c-36 -38 -24 -37 20 1 18 17 28 30 21 29 -7 -1 -26 -14
-41 -30z"/>
<path d="M1208 1763 c7 -3 16 -2 19 1 4 3 -2 6 -13 5 -11 0 -14 -3 -6 -6z"/>
<path d="M1288 1753 c7 -3 16 -2 19 1 4 3 -2 6 -13 5 -11 0 -14 -3 -6 -6z"/>
<path d="M1350 1740 c8 -5 20 -10 25 -10 6 0 3 5 -5 10 -8 5 -19 10 -25 10 -5
0 -3 -5 5 -10z"/>
<path d="M845 1721 c-3 -5 -2 -12 3 -15 5 -3 9 1 9 9 0 17 -3 19 -12 6z"/>
<path d="M1456 1618 c3 -4 1 -8 -5 -8 -18 0 -41 -57 -41 -99 0 -32 4 -40 20
-43 17 -2 13 -10 -28 -45 l-49 -42 7 32 c7 32 -11 87 -29 87 -23 0 -43 -15
-56 -41 -16 -31 -20 -106 -6 -128 6 -9 -1 -23 -23 -43 -22 -21 -25 -28 -12
-23 19 6 19 5 3 -13 -13 -14 -14 -21 -5 -30 10 -10 16 -8 31 10 18 23 18 23
12 1 -3 -12 -1 -24 5 -28 13 -8 13 -95 0 -95 -5 0 -10 -9 -10 -21 0 -11 4 -17
11 -14 12 8 10 -84 -3 -101 -5 -6 -4 -22 1 -35 7 -20 9 -16 15 31 4 30 19 78
34 107 22 44 25 54 13 65 -11 11 -12 9 -7 -9 5 -16 2 -25 -14 -33 -22 -12 -27
-1 -7 19 10 11 10 13 0 7 -10 -5 -13 8 -13 53 0 49 -4 65 -22 83 l-22 22 55
49 c30 27 80 71 111 97 33 28 52 51 45 53 -8 4 -6 6 3 6 9 1 16 10 17 21 1 11
9 34 17 50 8 17 10 28 5 25 -5 -4 -13 5 -18 18 -5 13 -16 24 -25 24 -8 0 -13
-4 -10 -9z"/>
<path d="M1531 1604 c0 -11 3 -14 6 -6 3 7 2 16 -1 19 -3 4 -6 -2 -5 -13z"/>
<path d="M1541 1566 c0 -11 -11 -31 -23 -45 l-22 -26 28 26 c18 17 26 33 23
45 -4 18 -5 18 -6 0z"/>
<path d="M1367 1543 c-4 -3 -7 -15 -7 -25 0 -26 24 -17 28 10 3 21 -8 29 -21
15z"/>
<path d="M685 1370 c-4 -6 -14 -9 -22 -8 -9 2 -18 -3 -20 -9 -7 -20 22 -15 42
7 10 11 15 20 12 20 -3 0 -9 -5 -12 -10z"/>
<path d="M1137 1215 c-24 -17 -21 -24 8 -19 l25 4 -25 -36 c-27 -39 -33 -62
-12 -44 6 6 21 18 32 26 11 9 15 13 8 10 -26 -14 -21 14 7 37 16 14 30 29 30
33 0 5 -5 3 -12 -4 -7 -7 -17 -8 -27 -2 -10 5 -23 3 -34 -5z"/>
<path d="M1271 894 c0 -11 3 -14 6 -6 3 7 2 16 -1 19 -3 4 -6 -2 -5 -13z"/>
<path d="M1261 854 c0 -11 3 -14 6 -6 3 7 2 16 -1 19 -3 4 -6 -2 -5 -13z"/>
</g>
</svg>
